<svg width="100" height="100" viewBox="0 0 100 100" fill="none" xmlns="http://www.w3.org/2000/svg">
<path d="M97.2222 0L96.3333 0.166667L66.6667 11.6667L33.3333 0L2 10.5556C0.833333 10.9444 0 11.9444 0 13.2222V97.2222C0 98.7778 1.22222 100 2.77778 100L3.66667 99.8333L33.3333 88.3333L66.6667 100L98 89.4444C99.1667 89.0556 100 88.0556 100 86.7778V2.77778C100 1.22222 98.7778 0 97.2222 0ZM38.8889 13.7222L61.1111 21.5V86.2778L38.8889 78.5V13.7222ZM11.1111 19.2222L27.7778 13.6111V78.6111L11.1111 85.0555V19.2222ZM88.8889 80.7778L72.2222 86.3889V21.4444L88.8889 15V80.7778Z" fill="#5E0606"/>
</svg>
