<svg width="105" height="105" viewBox="0 0 105 105" fill="none" xmlns="http://www.w3.org/2000/svg">
<path d="M33.95 32.6083C26.2968 40.2615 24.1745 52.2205 30.9694 60.6449C34.9387 65.5662 39.4318 70.0513 44.3608 74.0195C52.7867 80.803 64.7428 78.6989 72.3917 71.05V71.05C73.9667 69.475 76.3 68.95 78.3417 69.65C84.875 71.8083 91.9333 72.975 99.1667 72.975C102.375 72.975 105 75.6 105 78.8083V99.1667C105 102.375 102.375 105 99.1667 105C44.3917 105 0 60.6083 0 5.83333C0 2.625 2.625 0 5.83333 0H26.25C29.4583 0 32.0833 2.625 32.0833 5.83333C32.0833 13.125 33.25 20.125 35.4083 26.6583C36.05 28.7 35.5833 30.975 33.95 32.6083V32.6083Z" fill="#5E0606"/>
</svg>
