<svg width="32" height="32" viewBox="0 0 32 32" fill="none" xmlns="http://www.w3.org/2000/svg">
<g clip-path="url(#clip0_54_669)">
<path fill-rule="evenodd" clip-rule="evenodd" d="M13.2793 12.3538C10.2888 14.0803 14.8516 22.6343 18.124 20.745C18.7051 21.7515 20.5769 24.9936 21.158 26.0001C19.7773 26.7973 18.6087 27.2998 17.008 26.3847C12.5636 23.8441 7.67152 15.3738 7.8107 10.3217C7.85904 8.56694 8.89289 7.87939 10.2452 7.09863C10.8263 8.10514 12.6981 11.3472 13.2793 12.3538L13.2793 12.3538Z" fill="black"/>
<path fill-rule="evenodd" clip-rule="evenodd" d="M14.5337 12.2111C14.2106 12.3976 13.7948 12.2863 13.6082 11.9631L10.7479 7.00892C10.5613 6.68574 10.6727 6.26997 10.9958 6.08338L12.4991 5.21546C12.8223 5.02887 13.2381 5.14032 13.4247 5.46347L16.285 10.4176C16.4715 10.7408 16.3602 11.1566 16.037 11.3431L14.5337 12.2111L14.5337 12.2111Z" fill="black"/>
<path fill-rule="evenodd" clip-rule="evenodd" d="M22.3478 25.7457C22.0247 25.9323 21.6089 25.821 21.4223 25.4978L18.562 20.5436C18.3754 20.2204 18.4867 19.8046 18.8099 19.6181L20.3132 18.7501C20.6363 18.5635 21.0522 18.675 21.2388 18.9981L24.0991 23.9523C24.2856 24.2754 24.1742 24.6912 23.8511 24.8778L22.3478 25.7457L22.3478 25.7457Z" fill="black"/>
<path d="M15.9999 0H16.0001V0.00372642C20.42 0.00379417 24.4199 1.79366 27.3131 4.68695C30.2063 7.58011 31.9961 11.5797 31.9962 15.9995H31.9999V16V16.0002H31.9962C31.9961 20.4201 30.2063 24.42 27.313 27.3132C24.4198 30.2063 20.4201 31.9961 16.0004 31.9963V32H15.9999H15.9997V31.9963C11.5798 31.9962 7.57996 30.2063 4.68672 27.313C1.7936 24.4198 0.00379715 20.4202 0.00366538 16.0005H-6.10352e-05V16V15.9997H0.00366538C0.00373314 11.5799 1.7936 7.58003 4.68689 4.68678C7.58005 1.79366 11.5797 0.00385819 15.9994 0.00372642V0H15.9999V0ZM16.0001 1.9084V1.91212H15.9999H15.9994V1.9084C12.1125 1.9085 8.59051 3.48708 6.03883 6.03873C3.48701 8.59051 1.90836 12.1127 1.90833 15.9997H1.91206V16V16.0005H1.90833C1.90843 19.8874 3.48701 23.4094 6.03866 25.9611C8.59044 28.5129 12.1126 30.0916 15.9997 30.0916V30.0879H15.9999H16.0004V30.0916C19.8873 30.0915 23.4093 28.5129 25.961 25.9613C28.5128 23.4095 30.0915 19.8873 30.0915 16.0002H30.0878V16V15.9995H30.0915C30.0914 12.1126 28.5128 8.59057 25.9612 6.0389C23.4094 3.48708 19.8872 1.90843 16.0001 1.9084Z" fill="black"/>
</g>
<defs>
<clipPath id="clip0_54_669">
<rect width="32" height="32" fill="white"/>
</clipPath>
</defs>
</svg>
