<svg width="32" height="32" viewBox="0 0 32 32" fill="none" xmlns="http://www.w3.org/2000/svg">
<path d="M16 32C24.8366 32 32 24.8366 32 16C32 7.16344 24.8366 0 16 0C7.16344 0 0 7.16344 0 16C0 24.8366 7.16344 32 16 32Z" fill="black"/>
<path d="M6.65898 15.8611L17.4336 11.4218C18.4972 10.9594 22.1043 9.47968 22.1043 9.47968C22.1043 9.47968 23.7691 8.83235 23.6303 10.4045C23.5841 11.0518 23.2143 13.3178 22.8442 15.7685L21.6882 23.0285C21.6882 23.0285 21.5956 24.0921 20.8082 24.277C20.0207 24.4619 18.7272 23.6297 18.4962 23.4446C18.3112 23.3059 15.0279 21.225 13.8255 20.2077C13.5018 19.9303 13.1319 19.3753 13.8718 18.7279C15.5366 17.2019 17.5251 15.3059 18.7272 14.1037C19.2822 13.5487 19.8371 12.2539 17.525 13.8263L11.0047 18.2194C11.0047 18.2194 10.2647 18.6818 8.87752 18.2657C7.49032 17.8495 5.87178 17.2946 5.87178 17.2946C5.87178 17.2946 4.76192 16.601 6.65792 15.8613L6.65898 15.8611Z" fill="white"/>
</svg>
