<svg width="100" height="100" viewBox="0 0 100 100" fill="none" xmlns="http://www.w3.org/2000/svg">
<path d="M44.4444 77.7778C44.4444 80.8333 46.9444 83.3333 50 83.3333C53.0556 83.3333 55.5556 80.8333 55.5556 77.7778C55.5556 74.7222 53.0556 72.2222 50 72.2222C46.9444 72.2222 44.4444 74.7222 44.4444 77.7778ZM44.4444 0V22.2222H55.5556V11.5556C74.3889 14.2778 88.8889 30.3889 88.8889 50C88.8889 71.5 71.5 88.8889 50 88.8889C28.5 88.8889 11.1111 71.5 11.1111 50C11.1111 40.6667 14.3889 32.1111 19.8889 25.4444L50 55.5556L57.8333 47.7222L20.0556 9.94444V10.0556C7.88889 19.1667 0 33.6111 0 50C0 77.6111 22.3333 100 50 100C77.6111 100 100 77.6111 100 50C100 22.3889 77.6111 0 50 0H44.4444ZM83.3333 50C83.3333 46.9444 80.8333 44.4444 77.7778 44.4444C74.7222 44.4444 72.2222 46.9444 72.2222 50C72.2222 53.0556 74.7222 55.5556 77.7778 55.5556C80.8333 55.5556 83.3333 53.0556 83.3333 50ZM16.6667 50C16.6667 53.0556 19.1667 55.5556 22.2222 55.5556C25.2778 55.5556 27.7778 53.0556 27.7778 50C27.7778 46.9444 25.2778 44.4444 22.2222 44.4444C19.1667 44.4444 16.6667 46.9444 16.6667 50Z" fill="#5E0606"/>
</svg>
