<svg width="68" height="68" viewBox="0 0 68 68" fill="none" xmlns="http://www.w3.org/2000/svg">
<path d="M1.0625 34C1.0625 15.8047 15.8047 1.0625 34 1.0625C52.1953 1.0625 66.9375 15.8047 66.9375 34C66.9375 52.1953 52.1953 66.9375 34 66.9375C15.8047 66.9375 1.0625 52.1953 1.0625 34ZM31.7422 18.8727L13.7461 36.8688C12.4977 38.1172 12.4977 40.1359 13.7461 41.3711L16.0039 43.6289C17.2523 44.8773 19.2711 44.8773 20.5062 43.6289L34 30.1352L47.4938 43.6289C48.7422 44.8773 50.7609 44.8773 51.9961 43.6289L54.2539 41.3711C55.5023 40.1227 55.5023 38.1039 54.2539 36.8688L36.2578 18.8727C35.0094 17.6242 32.9906 17.6242 31.7422 18.8727Z" fill="#5E0606"/>
</svg>
