<svg width="1659" height="1510" viewBox="0 0 1659 1510" fill="none" xmlns="http://www.w3.org/2000/svg">
<path fill-rule="evenodd" clip-rule="evenodd" d="M877.86 2.16527C1013.88 -9.28418 1133.89 66.5752 1265.54 101.084C1462.63 152.744 1513 93.5 1601 252.5C1678.5 410.5 1591.14 573.289 1551.92 768.281C1515.78 947.939 1724.9 1139.15 1633.95 1300.24C1546.06 1455.89 1319.73 1506.96 1134.25 1508C964.823 1508.94 837.677 1381.66 670 1358.52C456.155 1329 204.067 1504.03 51.1936 1358.52C-96.5711 1217.86 128.846 977.407 130.053 778.386C131.012 620.307 -30.1177 453.154 57.4998 318.92C147.673 180.772 373.599 223.942 531.832 162.846C653.207 115.98 747.407 13.1465 877.86 2.16527Z" fill="#FFBB38"/>
<path d="M877.86 2.16527L877.944 3.16175L877.86 2.16527ZM1265.54 101.084L1265.8 100.116L1265.8 100.116L1265.54 101.084ZM1601 252.5L1601.9 252.06L1601.89 252.037L1601.87 252.016L1601 252.5ZM1551.92 768.281L1550.94 768.084L1550.94 768.084L1551.92 768.281ZM1633.95 1300.24L1633.08 1299.75L1633.08 1299.75L1633.95 1300.24ZM1134.25 1508L1134.25 1509L1134.25 1508ZM670 1358.52L669.863 1359.51L670 1358.52ZM51.1936 1358.52L51.8831 1357.79L51.8831 1357.79L51.1936 1358.52ZM130.053 778.386L129.053 778.38L130.053 778.386ZM57.4998 318.92L56.6624 318.374L56.6624 318.374L57.4998 318.92ZM531.832 162.846L531.471 161.913L531.832 162.846ZM877.944 3.16175C945.743 -2.54541 1009.59 13.5032 1073.01 35.3358C1136.36 57.1443 1199.42 84.7863 1265.29 102.051L1265.8 100.116C1200.01 82.8725 1137.24 55.3306 1073.66 33.4447C1010.16 11.5828 945.992 -4.5735 877.776 1.1688L877.944 3.16175ZM1265.29 102.051C1314.62 114.981 1354.77 120.972 1388.61 125.169C1422.48 129.371 1449.91 131.768 1473.95 137.512C1497.94 143.243 1518.49 152.296 1538.52 169.781C1558.57 187.286 1578.15 213.283 1600.13 252.984L1601.87 252.016C1579.85 212.217 1560.13 185.995 1539.83 168.274C1519.51 150.535 1498.65 141.357 1474.41 135.567C1450.23 129.789 1422.61 127.373 1388.85 123.185C1355.06 118.993 1315.01 113.016 1265.8 100.116L1265.29 102.051ZM1600.1 252.94C1638.71 331.656 1636.28 411.598 1619.25 496.322C1610.73 538.69 1598.56 582.22 1586.07 627.38C1573.57 672.529 1560.75 719.296 1550.94 768.084L1552.9 768.479C1562.69 719.77 1575.5 673.067 1587.99 627.914C1600.49 582.773 1612.67 539.169 1621.21 496.716C1638.28 411.797 1640.79 331.344 1601.9 252.06L1600.1 252.94ZM1550.94 768.084C1541.86 813.217 1548.19 859.028 1561.32 904.815C1574.44 950.588 1594.38 996.437 1612.56 1041.6C1648.98 1132.06 1678.29 1219.68 1633.08 1299.75L1634.82 1300.73C1680.56 1219.71 1650.79 1131.18 1614.42 1040.85C1596.2 995.614 1576.32 949.907 1563.24 904.264C1550.16 858.636 1543.91 813.175 1552.9 768.479L1550.94 768.084ZM1633.08 1299.75C1589.29 1377.29 1510.99 1428.85 1420.36 1461.16C1329.74 1493.46 1226.91 1506.48 1134.24 1507L1134.25 1509C1227.07 1508.48 1330.14 1495.44 1421.03 1463.04C1511.91 1430.64 1590.71 1378.84 1634.82 1300.73L1633.08 1299.75ZM1134.24 1507C1049.78 1507.47 975.817 1475.98 901.892 1441.38C828.022 1406.81 754.16 1369.12 670.137 1357.53L669.863 1359.51C753.517 1371.05 827.067 1408.58 901.045 1443.2C974.968 1477.79 1049.29 1509.47 1134.25 1509L1134.24 1507ZM670.137 1357.53C616.524 1350.13 560.553 1355.55 504.418 1365.55C448.339 1375.53 391.864 1390.12 337.535 1401.04C228.667 1422.92 127.917 1430.17 51.8831 1357.79L50.5041 1359.24C127.344 1432.38 229.074 1424.88 337.929 1403C392.462 1392.04 448.66 1377.5 504.768 1367.51C560.821 1357.54 616.553 1352.15 669.863 1359.51L670.137 1357.53ZM51.8831 1357.79C15.1714 1322.85 1.63699 1281.73 2.00738 1236.53C2.37818 1191.28 16.6868 1141.95 35.6965 1090.69C45.1987 1065.06 55.8645 1038.98 66.5362 1012.69C77.2053 986.415 87.879 959.938 97.3835 933.553C116.389 880.793 130.75 828.32 131.053 778.392L129.053 778.38C128.752 827.962 114.484 880.179 95.5019 932.875C86.0126 959.218 75.353 985.66 64.6831 1011.94C54.0156 1038.22 43.3365 1064.33 33.8213 1089.99C14.7965 1141.3 0.381244 1190.9 0.00744259 1236.51C-0.366775 1282.18 13.3334 1323.86 50.5041 1359.24L51.8831 1357.79ZM131.053 778.392C131.294 738.709 121.363 698.5 107.747 658.46C94.1441 618.46 76.7908 578.442 62.2165 539.362C33.0032 461.026 14.8248 386.129 58.3372 319.467L56.6624 318.374C12.5573 385.944 31.1351 461.741 60.3426 540.061C74.9787 579.307 92.252 619.108 105.853 659.104C119.441 699.059 129.292 739.023 129.053 778.38L131.053 778.392ZM58.3372 319.467C103.169 250.783 181.789 227.086 269.302 212.976C291.167 209.45 313.567 206.526 336.117 203.644C358.661 200.762 381.358 197.923 403.791 194.569C448.655 187.863 492.53 179.092 532.192 163.778L531.471 161.913C492.017 177.147 448.314 185.892 403.495 192.591C381.088 195.941 358.417 198.777 335.863 201.66C313.315 204.542 290.885 207.47 268.984 211.001C181.432 225.117 102.003 248.909 56.6624 318.374L58.3372 319.467ZM532.192 163.778C592.986 140.305 647.006 102.799 701.955 69.907C756.959 36.9826 812.957 8.63219 877.944 3.16175L877.776 1.1688C812.31 6.67959 755.982 35.2367 700.928 68.1909C645.821 101.178 592.053 138.521 531.471 161.913L532.192 163.778Z" fill="#833F20"/>
</svg>
